<mxfile host="app.diagrams.net" modified="2023-12-01T05:37:28.591Z" agent="Mozilla/5.0 (Windows NT 10.0; Win64; x64) AppleWebKit/537.36 (KHTML, like Gecko) Chrome/119.0.0.0 Safari/537.36" version="22.1.5" etag="bAjAZHh_V7BWnGB1LC21" type="github">
  <diagram name="Page-1" id="18bf2w7vUE-7WFa4_icg">
    <mxGraphModel>
      <root>
        <mxCell id="0" />
        <mxCell id="1" parent="0" />
      </root>
    </mxGraphModel>
  </diagram>
</mxfile>
